<mxfile host="app.diagrams.net" modified="2021-03-26T11:29:01.363Z" agent="5.0 (Windows NT 10.0; Win64; x64) AppleWebKit/537.36 (KHTML, like Gecko) Chrome/89.0.4389.90 Safari/537.36" etag="EBah--Tc3w5Dqtm4SFFh" version="14.5.1" type="github">
  <diagram id="C5RBs43oDa-KdzZeNtuy" name="Page-1">
    <mxGraphModel dx="3316" dy="1931" grid="1" gridSize="10" guides="1" tooltips="1" connect="1" arrows="1" fold="1" page="1" pageScale="1" pageWidth="827" pageHeight="1169" math="0" shadow="0">
      <root>
        <mxCell id="WIyWlLk6GJQsqaUBKTNV-0" />
        <mxCell id="WIyWlLk6GJQsqaUBKTNV-1" parent="WIyWlLk6GJQsqaUBKTNV-0" />
        <mxCell id="DX7c9E7uDzoyNdZQMoH--0" value="ConfigureFile" style="swimlane;fontStyle=0;childLayout=stackLayout;horizontal=1;startSize=26;fillColor=none;horizontalStack=0;resizeParent=1;resizeParentMax=0;resizeLast=0;collapsible=1;marginBottom=0;" parent="WIyWlLk6GJQsqaUBKTNV-1" vertex="1">
          <mxGeometry x="160" y="-1160" width="160" height="104" as="geometry" />
        </mxCell>
        <mxCell id="DX7c9E7uDzoyNdZQMoH--1" value="+ fileName: String" style="text;strokeColor=none;fillColor=none;align=left;verticalAlign=top;spacingLeft=4;spacingRight=4;overflow=hidden;rotatable=0;points=[[0,0.5],[1,0.5]];portConstraint=eastwest;" parent="DX7c9E7uDzoyNdZQMoH--0" vertex="1">
          <mxGeometry y="26" width="160" height="26" as="geometry" />
        </mxCell>
        <mxCell id="DX7c9E7uDzoyNdZQMoH--2" value="+ configure: JSONObject" style="text;strokeColor=none;fillColor=none;align=left;verticalAlign=top;spacingLeft=4;spacingRight=4;overflow=hidden;rotatable=0;points=[[0,0.5],[1,0.5]];portConstraint=eastwest;" parent="DX7c9E7uDzoyNdZQMoH--0" vertex="1">
          <mxGeometry y="52" width="160" height="26" as="geometry" />
        </mxCell>
        <mxCell id="DX7c9E7uDzoyNdZQMoH--3" value="Â conf: Conf" style="text;strokeColor=none;fillColor=none;align=left;verticalAlign=top;spacingLeft=4;spacingRight=4;overflow=hidden;rotatable=0;points=[[0,0.5],[1,0.5]];portConstraint=eastwest;" parent="DX7c9E7uDzoyNdZQMoH--0" vertex="1">
          <mxGeometry y="78" width="160" height="26" as="geometry" />
        </mxCell>
        <mxCell id="DX7c9E7uDzoyNdZQMoH--5" value="Conf" style="swimlane;fontStyle=0;childLayout=stackLayout;horizontal=1;startSize=26;fillColor=none;horizontalStack=0;resizeParent=1;resizeParentMax=0;resizeLast=0;collapsible=1;marginBottom=0;" parent="WIyWlLk6GJQsqaUBKTNV-1" vertex="1">
          <mxGeometry x="460" y="-1082" width="190" height="78" as="geometry" />
        </mxCell>
        <mxCell id="DX7c9E7uDzoyNdZQMoH--6" value="+ classPathLocation: String" style="text;strokeColor=none;fillColor=none;align=left;verticalAlign=top;spacingLeft=4;spacingRight=4;overflow=hidden;rotatable=0;points=[[0,0.5],[1,0.5]];portConstraint=eastwest;" parent="DX7c9E7uDzoyNdZQMoH--5" vertex="1">
          <mxGeometry y="26" width="190" height="26" as="geometry" />
        </mxCell>
        <mxCell id="DX7c9E7uDzoyNdZQMoH--7" value="+ timeout: long" style="text;strokeColor=none;fillColor=none;align=left;verticalAlign=top;spacingLeft=4;spacingRight=4;overflow=hidden;rotatable=0;points=[[0,0.5],[1,0.5]];portConstraint=eastwest;" parent="DX7c9E7uDzoyNdZQMoH--5" vertex="1">
          <mxGeometry y="52" width="190" height="26" as="geometry" />
        </mxCell>
        <mxCell id="DX7c9E7uDzoyNdZQMoH--10" value="Use" style="endArrow=open;endSize=12;dashed=1;html=1;" parent="WIyWlLk6GJQsqaUBKTNV-1" edge="1">
          <mxGeometry width="160" relative="1" as="geometry">
            <mxPoint x="320" y="-1070" as="sourcePoint" />
            <mxPoint x="460" y="-1070" as="targetPoint" />
          </mxGeometry>
        </mxCell>
        <mxCell id="q8WLuEsN7JuPDFzRLcxJ-0" value="PageManagerPool" style="swimlane;fontStyle=0;childLayout=stackLayout;horizontal=1;startSize=26;fillColor=none;horizontalStack=0;resizeParent=1;resizeParentMax=0;resizeLast=0;collapsible=1;marginBottom=0;" parent="WIyWlLk6GJQsqaUBKTNV-1" vertex="1">
          <mxGeometry x="163" y="-950" width="230" height="52" as="geometry" />
        </mxCell>
        <mxCell id="q8WLuEsN7JuPDFzRLcxJ-1" value="+ pageManagers: ConcurrentHashMap" style="text;strokeColor=none;fillColor=none;align=left;verticalAlign=top;spacingLeft=4;spacingRight=4;overflow=hidden;rotatable=0;points=[[0,0.5],[1,0.5]];portConstraint=eastwest;" parent="q8WLuEsN7JuPDFzRLcxJ-0" vertex="1">
          <mxGeometry y="26" width="230" height="26" as="geometry" />
        </mxCell>
        <mxCell id="q8WLuEsN7JuPDFzRLcxJ-5" value="PageManager" style="swimlane;fontStyle=0;childLayout=stackLayout;horizontal=1;startSize=26;fillColor=none;horizontalStack=0;resizeParent=1;resizeParentMax=0;resizeLast=0;collapsible=1;marginBottom=0;" parent="WIyWlLk6GJQsqaUBKTNV-1" vertex="1">
          <mxGeometry x="590" y="-924" width="230" height="240" as="geometry" />
        </mxCell>
        <mxCell id="q8WLuEsN7JuPDFzRLcxJ-6" value="+ jsProperties: GlobalJsProperties" style="text;strokeColor=none;fillColor=none;align=left;verticalAlign=top;spacingLeft=4;spacingRight=4;overflow=hidden;rotatable=0;points=[[0,0.5],[1,0.5]];portConstraint=eastwest;" parent="q8WLuEsN7JuPDFzRLcxJ-5" vertex="1">
          <mxGeometry y="26" width="230" height="26" as="geometry" />
        </mxCell>
        <mxCell id="q8WLuEsN7JuPDFzRLcxJ-7" value="+ configureFile: ConfigureFile" style="text;strokeColor=none;fillColor=none;align=left;verticalAlign=top;spacingLeft=4;spacingRight=4;overflow=hidden;rotatable=0;points=[[0,0.5],[1,0.5]];portConstraint=eastwest;" parent="q8WLuEsN7JuPDFzRLcxJ-5" vertex="1">
          <mxGeometry y="52" width="230" height="26" as="geometry" />
        </mxCell>
        <mxCell id="q8WLuEsN7JuPDFzRLcxJ-11" value="+ sqlParser: SqlParser" style="text;strokeColor=none;fillColor=none;align=left;verticalAlign=top;spacingLeft=4;spacingRight=4;overflow=hidden;rotatable=0;points=[[0,0.5],[1,0.5]];portConstraint=eastwest;" parent="q8WLuEsN7JuPDFzRLcxJ-5" vertex="1">
          <mxGeometry y="78" width="230" height="22" as="geometry" />
        </mxCell>
        <mxCell id="q8WLuEsN7JuPDFzRLcxJ-10" value="+ nameList: List" style="text;strokeColor=none;fillColor=none;align=left;verticalAlign=top;spacingLeft=4;spacingRight=4;overflow=hidden;rotatable=0;points=[[0,0.5],[1,0.5]];portConstraint=eastwest;" parent="q8WLuEsN7JuPDFzRLcxJ-5" vertex="1">
          <mxGeometry y="100" width="230" height="22" as="geometry" />
        </mxCell>
        <mxCell id="q8WLuEsN7JuPDFzRLcxJ-12" value="+ url: String" style="text;strokeColor=none;fillColor=none;align=left;verticalAlign=top;spacingLeft=4;spacingRight=4;overflow=hidden;rotatable=0;points=[[0,0.5],[1,0.5]];portConstraint=eastwest;" parent="q8WLuEsN7JuPDFzRLcxJ-5" vertex="1">
          <mxGeometry y="122" width="230" height="22" as="geometry" />
        </mxCell>
        <mxCell id="q8WLuEsN7JuPDFzRLcxJ-13" value="+ abstractPageComponents: Map" style="text;strokeColor=none;fillColor=none;align=left;verticalAlign=top;spacingLeft=4;spacingRight=4;overflow=hidden;rotatable=0;points=[[0,0.5],[1,0.5]];portConstraint=eastwest;" parent="q8WLuEsN7JuPDFzRLcxJ-5" vertex="1">
          <mxGeometry y="144" width="230" height="22" as="geometry" />
        </mxCell>
        <mxCell id="q8WLuEsN7JuPDFzRLcxJ-14" value="+ documentMap: Map" style="text;strokeColor=none;fillColor=none;align=left;verticalAlign=top;spacingLeft=4;spacingRight=4;overflow=hidden;rotatable=0;points=[[0,0.5],[1,0.5]];portConstraint=eastwest;" parent="q8WLuEsN7JuPDFzRLcxJ-5" vertex="1">
          <mxGeometry y="166" width="230" height="22" as="geometry" />
        </mxCell>
        <mxCell id="q8WLuEsN7JuPDFzRLcxJ-15" value="+ isSingleton: Boolean" style="text;strokeColor=none;fillColor=none;align=left;verticalAlign=top;spacingLeft=4;spacingRight=4;overflow=hidden;rotatable=0;points=[[0,0.5],[1,0.5]];portConstraint=eastwest;" parent="q8WLuEsN7JuPDFzRLcxJ-5" vertex="1">
          <mxGeometry y="188" width="230" height="22" as="geometry" />
        </mxCell>
        <mxCell id="q8WLuEsN7JuPDFzRLcxJ-8" value="+ createTime: long" style="text;strokeColor=none;fillColor=none;align=left;verticalAlign=top;spacingLeft=4;spacingRight=4;overflow=hidden;rotatable=0;points=[[0,0.5],[1,0.5]];portConstraint=eastwest;" parent="q8WLuEsN7JuPDFzRLcxJ-5" vertex="1">
          <mxGeometry y="210" width="230" height="30" as="geometry" />
        </mxCell>
        <mxCell id="q8WLuEsN7JuPDFzRLcxJ-21" value="Use" style="endArrow=open;endSize=12;dashed=1;html=1;entryX=-0.03;entryY=0.058;entryDx=0;entryDy=0;entryPerimeter=0;" parent="WIyWlLk6GJQsqaUBKTNV-1" target="q8WLuEsN7JuPDFzRLcxJ-5" edge="1">
          <mxGeometry width="160" relative="1" as="geometry">
            <mxPoint x="403" y="-910" as="sourcePoint" />
            <mxPoint x="563" y="-910" as="targetPoint" />
          </mxGeometry>
        </mxCell>
        <mxCell id="6wZ1TeUxjv15UuRKBNIG-1" value="BeanDefinition" style="swimlane;html=1;startSize=20;horizontal=1;containerType=tree;" vertex="1" parent="WIyWlLk6GJQsqaUBKTNV-1">
          <mxGeometry x="-810" y="-1160" width="450" height="420" as="geometry" />
        </mxCell>
        <mxCell id="6wZ1TeUxjv15UuRKBNIG-3" value="lenientConstructorResolution" style="whiteSpace=wrap;html=1;treeFolding=1;treeMoving=1;newEdgeStyle={&quot;edgeStyle&quot;:&quot;elbowEdgeStyle&quot;,&quot;startArrow&quot;:&quot;none&quot;,&quot;endArrow&quot;:&quot;none&quot;};" vertex="1" parent="6wZ1TeUxjv15UuRKBNIG-1">
          <mxGeometry x="10" y="200" width="170" height="40" as="geometry" />
        </mxCell>
        <mxCell id="6wZ1TeUxjv15UuRKBNIG-8" value="lazyInit" style="whiteSpace=wrap;html=1;treeFolding=1;treeMoving=1;newEdgeStyle={&quot;edgeStyle&quot;:&quot;elbowEdgeStyle&quot;,&quot;startArrow&quot;:&quot;none&quot;,&quot;endArrow&quot;:&quot;none&quot;};" vertex="1" parent="6wZ1TeUxjv15UuRKBNIG-1">
          <mxGeometry x="170" y="40" width="60" height="40" as="geometry" />
        </mxCell>
        <mxCell id="6wZ1TeUxjv15UuRKBNIG-14" value="autowireMode" style="whiteSpace=wrap;html=1;treeFolding=1;treeMoving=1;newEdgeStyle={&quot;edgeStyle&quot;:&quot;elbowEdgeStyle&quot;,&quot;startArrow&quot;:&quot;none&quot;,&quot;endArrow&quot;:&quot;none&quot;};" vertex="1" parent="6wZ1TeUxjv15UuRKBNIG-1">
          <mxGeometry x="237" y="40" width="103" height="40" as="geometry" />
        </mxCell>
        <mxCell id="6wZ1TeUxjv15UuRKBNIG-13" value="dependsOn" style="whiteSpace=wrap;html=1;treeFolding=1;treeMoving=1;newEdgeStyle={&quot;edgeStyle&quot;:&quot;elbowEdgeStyle&quot;,&quot;startArrow&quot;:&quot;none&quot;,&quot;endArrow&quot;:&quot;none&quot;};" vertex="1" parent="6wZ1TeUxjv15UuRKBNIG-1">
          <mxGeometry x="350" y="40" width="80" height="40" as="geometry" />
        </mxCell>
        <mxCell id="6wZ1TeUxjv15UuRKBNIG-12" value="primary" style="whiteSpace=wrap;html=1;treeFolding=1;treeMoving=1;newEdgeStyle={&quot;edgeStyle&quot;:&quot;elbowEdgeStyle&quot;,&quot;startArrow&quot;:&quot;none&quot;,&quot;endArrow&quot;:&quot;none&quot;};" vertex="1" parent="6wZ1TeUxjv15UuRKBNIG-1">
          <mxGeometry x="267" y="90" width="60" height="40" as="geometry" />
        </mxCell>
        <mxCell id="6wZ1TeUxjv15UuRKBNIG-11" value="instanceSupplier" style="whiteSpace=wrap;html=1;treeFolding=1;treeMoving=1;newEdgeStyle={&quot;edgeStyle&quot;:&quot;elbowEdgeStyle&quot;,&quot;startArrow&quot;:&quot;none&quot;,&quot;endArrow&quot;:&quot;none&quot;};" vertex="1" parent="6wZ1TeUxjv15UuRKBNIG-1">
          <mxGeometry x="10" y="146" width="110" height="40" as="geometry" />
        </mxCell>
        <mxCell id="6wZ1TeUxjv15UuRKBNIG-10" value="abstractFlag" style="whiteSpace=wrap;html=1;treeFolding=1;treeMoving=1;newEdgeStyle={&quot;edgeStyle&quot;:&quot;elbowEdgeStyle&quot;,&quot;startArrow&quot;:&quot;none&quot;,&quot;endArrow&quot;:&quot;none&quot;};" vertex="1" parent="6wZ1TeUxjv15UuRKBNIG-1">
          <mxGeometry x="80" y="40" width="80" height="40" as="geometry" />
        </mxCell>
        <mxCell id="6wZ1TeUxjv15UuRKBNIG-19" value="factoryBeanName" style="whiteSpace=wrap;html=1;treeFolding=1;treeMoving=1;newEdgeStyle={&quot;edgeStyle&quot;:&quot;elbowEdgeStyle&quot;,&quot;startArrow&quot;:&quot;none&quot;,&quot;endArrow&quot;:&quot;none&quot;};" vertex="1" parent="6wZ1TeUxjv15UuRKBNIG-1">
          <mxGeometry x="300" y="146" width="130" height="40" as="geometry" />
        </mxCell>
        <mxCell id="6wZ1TeUxjv15UuRKBNIG-18" value="nonPublicAccessAllowed" style="whiteSpace=wrap;html=1;treeFolding=1;treeMoving=1;newEdgeStyle={&quot;edgeStyle&quot;:&quot;elbowEdgeStyle&quot;,&quot;startArrow&quot;:&quot;none&quot;,&quot;endArrow&quot;:&quot;none&quot;};" vertex="1" parent="6wZ1TeUxjv15UuRKBNIG-1">
          <mxGeometry x="130" y="146" width="160" height="40" as="geometry" />
        </mxCell>
        <mxCell id="6wZ1TeUxjv15UuRKBNIG-17" value="qualifiers" style="whiteSpace=wrap;html=1;treeFolding=1;treeMoving=1;newEdgeStyle={&quot;edgeStyle&quot;:&quot;elbowEdgeStyle&quot;,&quot;startArrow&quot;:&quot;none&quot;,&quot;endArrow&quot;:&quot;none&quot;};" vertex="1" parent="6wZ1TeUxjv15UuRKBNIG-1">
          <mxGeometry x="340" y="90" width="90" height="40" as="geometry" />
        </mxCell>
        <mxCell id="6wZ1TeUxjv15UuRKBNIG-16" value="autowireCandidate" style="whiteSpace=wrap;html=1;treeFolding=1;treeMoving=1;newEdgeStyle={&quot;edgeStyle&quot;:&quot;elbowEdgeStyle&quot;,&quot;startArrow&quot;:&quot;none&quot;,&quot;endArrow&quot;:&quot;none&quot;};" vertex="1" parent="6wZ1TeUxjv15UuRKBNIG-1">
          <mxGeometry x="140" y="90" width="120" height="40" as="geometry" />
        </mxCell>
        <mxCell id="6wZ1TeUxjv15UuRKBNIG-23" value="dependencyCheck" style="whiteSpace=wrap;html=1;treeFolding=1;treeMoving=1;newEdgeStyle={&quot;edgeStyle&quot;:&quot;elbowEdgeStyle&quot;,&quot;startArrow&quot;:&quot;none&quot;,&quot;endArrow&quot;:&quot;none&quot;};" vertex="1" parent="6wZ1TeUxjv15UuRKBNIG-1">
          <mxGeometry x="10" y="90" width="120" height="40" as="geometry" />
        </mxCell>
        <mxCell id="6wZ1TeUxjv15UuRKBNIG-25" value="scope" style="whiteSpace=wrap;html=1;treeFolding=1;treeMoving=1;newEdgeStyle={&quot;edgeStyle&quot;:&quot;elbowEdgeStyle&quot;,&quot;startArrow&quot;:&quot;none&quot;,&quot;endArrow&quot;:&quot;none&quot;};" vertex="1" parent="6wZ1TeUxjv15UuRKBNIG-1">
          <mxGeometry x="10" y="40" width="60" height="40" as="geometry" />
        </mxCell>
        <mxCell id="6wZ1TeUxjv15UuRKBNIG-22" value="beanClass" style="whiteSpace=wrap;html=1;treeFolding=1;treeMoving=1;newEdgeStyle={&quot;edgeStyle&quot;:&quot;elbowEdgeStyle&quot;,&quot;startArrow&quot;:&quot;none&quot;,&quot;endArrow&quot;:&quot;none&quot;};" vertex="1" parent="6wZ1TeUxjv15UuRKBNIG-1">
          <mxGeometry x="10" y="360" width="120" height="40" as="geometry" />
        </mxCell>
        <mxCell id="6wZ1TeUxjv15UuRKBNIG-7" value="factoryMethodName" style="whiteSpace=wrap;html=1;treeFolding=1;treeMoving=1;newEdgeStyle={&quot;edgeStyle&quot;:&quot;elbowEdgeStyle&quot;,&quot;startArrow&quot;:&quot;none&quot;,&quot;endArrow&quot;:&quot;none&quot;};" vertex="1" parent="6wZ1TeUxjv15UuRKBNIG-1">
          <mxGeometry x="190" y="200" width="120" height="40" as="geometry" />
        </mxCell>
        <mxCell id="6wZ1TeUxjv15UuRKBNIG-28" value="constructorArgumentValues" style="whiteSpace=wrap;html=1;treeFolding=1;treeMoving=1;newEdgeStyle={&quot;edgeStyle&quot;:&quot;elbowEdgeStyle&quot;,&quot;startArrow&quot;:&quot;none&quot;,&quot;endArrow&quot;:&quot;none&quot;};" vertex="1" parent="6wZ1TeUxjv15UuRKBNIG-1">
          <mxGeometry x="10" y="250" width="165" height="40" as="geometry" />
        </mxCell>
        <mxCell id="6wZ1TeUxjv15UuRKBNIG-29" value="propertyValues" style="whiteSpace=wrap;html=1;treeFolding=1;treeMoving=1;newEdgeStyle={&quot;edgeStyle&quot;:&quot;elbowEdgeStyle&quot;,&quot;startArrow&quot;:&quot;none&quot;,&quot;endArrow&quot;:&quot;none&quot;};" vertex="1" parent="6wZ1TeUxjv15UuRKBNIG-1">
          <mxGeometry x="320" y="200" width="110" height="40" as="geometry" />
        </mxCell>
        <mxCell id="6wZ1TeUxjv15UuRKBNIG-30" value="methodOverrides" style="whiteSpace=wrap;html=1;treeFolding=1;treeMoving=1;newEdgeStyle={&quot;edgeStyle&quot;:&quot;elbowEdgeStyle&quot;,&quot;startArrow&quot;:&quot;none&quot;,&quot;endArrow&quot;:&quot;none&quot;};" vertex="1" parent="6wZ1TeUxjv15UuRKBNIG-1">
          <mxGeometry x="190" y="250" width="120" height="40" as="geometry" />
        </mxCell>
        <mxCell id="6wZ1TeUxjv15UuRKBNIG-31" value="initMethodName" style="whiteSpace=wrap;html=1;treeFolding=1;treeMoving=1;newEdgeStyle={&quot;edgeStyle&quot;:&quot;elbowEdgeStyle&quot;,&quot;startArrow&quot;:&quot;none&quot;,&quot;endArrow&quot;:&quot;none&quot;};" vertex="1" parent="6wZ1TeUxjv15UuRKBNIG-1">
          <mxGeometry x="320" y="250" width="110" height="40" as="geometry" />
        </mxCell>
        <mxCell id="6wZ1TeUxjv15UuRKBNIG-32" value="destoryMethodName" style="whiteSpace=wrap;html=1;treeFolding=1;treeMoving=1;newEdgeStyle={&quot;edgeStyle&quot;:&quot;elbowEdgeStyle&quot;,&quot;startArrow&quot;:&quot;none&quot;,&quot;endArrow&quot;:&quot;none&quot;};" vertex="1" parent="6wZ1TeUxjv15UuRKBNIG-1">
          <mxGeometry x="10" y="300" width="130" height="40" as="geometry" />
        </mxCell>
        <mxCell id="6wZ1TeUxjv15UuRKBNIG-33" value="enforceInitMethod" style="whiteSpace=wrap;html=1;treeFolding=1;treeMoving=1;newEdgeStyle={&quot;edgeStyle&quot;:&quot;elbowEdgeStyle&quot;,&quot;startArrow&quot;:&quot;none&quot;,&quot;endArrow&quot;:&quot;none&quot;};" vertex="1" parent="6wZ1TeUxjv15UuRKBNIG-1">
          <mxGeometry x="147" y="300" width="120" height="40" as="geometry" />
        </mxCell>
        <mxCell id="6wZ1TeUxjv15UuRKBNIG-34" value="synthetic" style="whiteSpace=wrap;html=1;treeFolding=1;treeMoving=1;newEdgeStyle={&quot;edgeStyle&quot;:&quot;elbowEdgeStyle&quot;,&quot;startArrow&quot;:&quot;none&quot;,&quot;endArrow&quot;:&quot;none&quot;};" vertex="1" parent="6wZ1TeUxjv15UuRKBNIG-1">
          <mxGeometry x="280" y="300" width="80" height="40" as="geometry" />
        </mxCell>
        <mxCell id="6wZ1TeUxjv15UuRKBNIG-35" value="role" style="whiteSpace=wrap;html=1;treeFolding=1;treeMoving=1;newEdgeStyle={&quot;edgeStyle&quot;:&quot;elbowEdgeStyle&quot;,&quot;startArrow&quot;:&quot;none&quot;,&quot;endArrow&quot;:&quot;none&quot;};" vertex="1" parent="6wZ1TeUxjv15UuRKBNIG-1">
          <mxGeometry x="377" y="300" width="53" height="40" as="geometry" />
        </mxCell>
        <mxCell id="6wZ1TeUxjv15UuRKBNIG-37" value="description" style="whiteSpace=wrap;html=1;treeFolding=1;treeMoving=1;newEdgeStyle={&quot;edgeStyle&quot;:&quot;elbowEdgeStyle&quot;,&quot;startArrow&quot;:&quot;none&quot;,&quot;endArrow&quot;:&quot;none&quot;};" vertex="1" parent="6wZ1TeUxjv15UuRKBNIG-1">
          <mxGeometry x="147" y="360" width="120" height="40" as="geometry" />
        </mxCell>
        <mxCell id="6wZ1TeUxjv15UuRKBNIG-36" value="resource" style="whiteSpace=wrap;html=1;treeFolding=1;treeMoving=1;newEdgeStyle={&quot;edgeStyle&quot;:&quot;elbowEdgeStyle&quot;,&quot;startArrow&quot;:&quot;none&quot;,&quot;endArrow&quot;:&quot;none&quot;};" vertex="1" parent="6wZ1TeUxjv15UuRKBNIG-1">
          <mxGeometry x="280" y="360" width="150" height="40" as="geometry" />
        </mxCell>
        <mxCell id="6wZ1TeUxjv15UuRKBNIG-38" value="" style="html=1;points=[];perimeter=orthogonalPerimeter;fillColor=#FFE599;" vertex="1" parent="WIyWlLk6GJQsqaUBKTNV-1">
          <mxGeometry x="-1500" y="-620" width="10" height="1610" as="geometry" />
        </mxCell>
        <mxCell id="6wZ1TeUxjv15UuRKBNIG-40" value="&lt;p style=&quot;margin: 0px ; margin-top: 4px ; text-align: center&quot;&gt;&lt;b&gt;ClassPathXmlApplicationContext&lt;/b&gt;&lt;/p&gt;&lt;hr size=&quot;1&quot;&gt;&lt;div style=&quot;height: 2px&quot;&gt;&lt;/div&gt;" style="verticalAlign=top;align=left;overflow=fill;fontSize=12;fontFamily=Helvetica;html=1;fillColor=#FFE599;" vertex="1" parent="WIyWlLk6GJQsqaUBKTNV-1">
          <mxGeometry x="-1610" y="-720" width="230" height="50" as="geometry" />
        </mxCell>
        <mxCell id="6wZ1TeUxjv15UuRKBNIG-42" value="" style="endArrow=none;startArrow=none;endFill=0;startFill=0;endSize=8;html=1;verticalAlign=bottom;dashed=1;labelBackgroundColor=none;dashPattern=10 10;entryX=0.4;entryY=-0.001;entryDx=0;entryDy=0;entryPerimeter=0;exitX=0.5;exitY=1;exitDx=0;exitDy=0;" edge="1" parent="WIyWlLk6GJQsqaUBKTNV-1" source="6wZ1TeUxjv15UuRKBNIG-40" target="6wZ1TeUxjv15UuRKBNIG-38">
          <mxGeometry x="-0.3005" y="-25" width="160" relative="1" as="geometry">
            <mxPoint x="-780" y="-660" as="sourcePoint" />
            <mxPoint x="-620" y="-660" as="targetPoint" />
            <mxPoint as="offset" />
          </mxGeometry>
        </mxCell>
        <mxCell id="6wZ1TeUxjv15UuRKBNIG-46" value="" style="html=1;points=[];perimeter=orthogonalPerimeter;fillColor=#FFE599;" vertex="1" parent="WIyWlLk6GJQsqaUBKTNV-1">
          <mxGeometry x="-1490" y="-590" width="10" height="90" as="geometry" />
        </mxCell>
        <mxCell id="6wZ1TeUxjv15UuRKBNIG-47" value="" style="edgeStyle=orthogonalEdgeStyle;html=1;align=left;spacingLeft=2;endArrow=block;rounded=0;" edge="1" parent="WIyWlLk6GJQsqaUBKTNV-1">
          <mxGeometry relative="1" as="geometry">
            <mxPoint x="-1480" y="-584" as="sourcePoint" />
            <Array as="points">
              <mxPoint x="-1480" y="-590" />
              <mxPoint x="-1430" y="-590" />
              <mxPoint x="-1430" y="-570" />
            </Array>
            <mxPoint x="-1480" y="-570" as="targetPoint" />
          </mxGeometry>
        </mxCell>
        <mxCell id="6wZ1TeUxjv15UuRKBNIG-48" value="&lt;span style=&quot;font-size: 11px ; text-align: left&quot;&gt;ClassPathXmlAppllcation&lt;/span&gt;" style="text;html=1;align=center;verticalAlign=middle;resizable=0;points=[];autosize=1;" vertex="1" parent="WIyWlLk6GJQsqaUBKTNV-1">
          <mxGeometry x="-1455" y="-610" width="150" height="20" as="geometry" />
        </mxCell>
        <mxCell id="6wZ1TeUxjv15UuRKBNIG-51" value="&lt;p style=&quot;margin: 0px ; margin-top: 4px ; text-align: center&quot;&gt;&lt;b&gt;AbstractApplicationContext&lt;/b&gt;&lt;/p&gt;&lt;hr size=&quot;1&quot;&gt;&lt;div style=&quot;height: 2px&quot;&gt;&lt;/div&gt;" style="verticalAlign=top;align=left;overflow=fill;fontSize=12;fontFamily=Helvetica;html=1;fillColor=#FFE599;" vertex="1" parent="WIyWlLk6GJQsqaUBKTNV-1">
          <mxGeometry x="-1340" y="-720" width="220" height="60" as="geometry" />
        </mxCell>
        <mxCell id="6wZ1TeUxjv15UuRKBNIG-52" value="" style="html=1;points=[];perimeter=orthogonalPerimeter;fillColor=#FFE599;" vertex="1" parent="WIyWlLk6GJQsqaUBKTNV-1">
          <mxGeometry x="-1250" y="-530" width="10" height="110" as="geometry" />
        </mxCell>
        <mxCell id="6wZ1TeUxjv15UuRKBNIG-53" value="refresh" style="html=1;verticalAlign=bottom;endArrow=block;entryX=0;entryY=0;exitX=1.2;exitY=0.656;exitDx=0;exitDy=0;exitPerimeter=0;" edge="1" target="6wZ1TeUxjv15UuRKBNIG-52" parent="WIyWlLk6GJQsqaUBKTNV-1" source="6wZ1TeUxjv15UuRKBNIG-46">
          <mxGeometry relative="1" as="geometry">
            <mxPoint x="-1320" y="-530" as="sourcePoint" />
          </mxGeometry>
        </mxCell>
        <mxCell id="6wZ1TeUxjv15UuRKBNIG-100" style="edgeStyle=orthogonalEdgeStyle;rounded=0;orthogonalLoop=1;jettySize=auto;html=1;entryX=0;entryY=0.014;entryDx=0;entryDy=0;entryPerimeter=0;" edge="1" parent="WIyWlLk6GJQsqaUBKTNV-1" source="6wZ1TeUxjv15UuRKBNIG-59" target="6wZ1TeUxjv15UuRKBNIG-61">
          <mxGeometry relative="1" as="geometry" />
        </mxCell>
        <mxCell id="6wZ1TeUxjv15UuRKBNIG-59" value="" style="html=1;points=[];perimeter=orthogonalPerimeter;fillColor=#FFE599;" vertex="1" parent="WIyWlLk6GJQsqaUBKTNV-1">
          <mxGeometry x="-1240" y="-490" width="10" height="60" as="geometry" />
        </mxCell>
        <mxCell id="6wZ1TeUxjv15UuRKBNIG-60" value="" style="edgeStyle=orthogonalEdgeStyle;html=1;align=left;spacingLeft=2;endArrow=block;rounded=0;entryX=1;entryY=0;" edge="1" target="6wZ1TeUxjv15UuRKBNIG-59" parent="WIyWlLk6GJQsqaUBKTNV-1">
          <mxGeometry relative="1" as="geometry">
            <mxPoint x="-1240" y="-510" as="sourcePoint" />
            <Array as="points">
              <mxPoint x="-1210" y="-510" />
            </Array>
          </mxGeometry>
        </mxCell>
        <mxCell id="6wZ1TeUxjv15UuRKBNIG-61" value="" style="html=1;points=[];perimeter=orthogonalPerimeter;fillColor=#FFE599;" vertex="1" parent="WIyWlLk6GJQsqaUBKTNV-1">
          <mxGeometry x="-1000" y="-470" width="10" height="1130" as="geometry" />
        </mxCell>
        <mxCell id="6wZ1TeUxjv15UuRKBNIG-64" value="" style="endArrow=none;startArrow=none;endFill=0;startFill=0;endSize=8;html=1;verticalAlign=bottom;dashed=1;labelBackgroundColor=none;dashPattern=10 10;exitX=0.409;exitY=1;exitDx=0;exitDy=0;exitPerimeter=0;" edge="1" parent="WIyWlLk6GJQsqaUBKTNV-1" source="6wZ1TeUxjv15UuRKBNIG-51">
          <mxGeometry width="160" relative="1" as="geometry">
            <mxPoint x="-1250" y="-660" as="sourcePoint" />
            <mxPoint x="-1250" y="-525" as="targetPoint" />
          </mxGeometry>
        </mxCell>
        <mxCell id="6wZ1TeUxjv15UuRKBNIG-65" value="&lt;p style=&quot;margin: 0px ; margin-top: 4px ; text-align: center&quot;&gt;&lt;b&gt;DefaultListableBeanFactory&lt;/b&gt;&lt;/p&gt;&lt;hr size=&quot;1&quot;&gt;&lt;div style=&quot;height: 2px&quot;&gt;&lt;/div&gt;" style="verticalAlign=top;align=left;overflow=fill;fontSize=12;fontFamily=Helvetica;html=1;fillColor=#FFE599;" vertex="1" parent="WIyWlLk6GJQsqaUBKTNV-1">
          <mxGeometry x="-1070" y="-720" width="170" height="60" as="geometry" />
        </mxCell>
        <mxCell id="6wZ1TeUxjv15UuRKBNIG-69" value="" style="endArrow=none;startArrow=none;endFill=0;startFill=0;endSize=8;html=1;verticalAlign=bottom;dashed=1;labelBackgroundColor=none;dashPattern=10 10;exitX=0.441;exitY=1.033;exitDx=0;exitDy=0;exitPerimeter=0;" edge="1" parent="WIyWlLk6GJQsqaUBKTNV-1" source="6wZ1TeUxjv15UuRKBNIG-65" target="6wZ1TeUxjv15UuRKBNIG-61">
          <mxGeometry width="160" relative="1" as="geometry">
            <mxPoint x="-1070" y="-600.5" as="sourcePoint" />
            <mxPoint x="-910" y="-600.5" as="targetPoint" />
          </mxGeometry>
        </mxCell>
        <mxCell id="6wZ1TeUxjv15UuRKBNIG-70" value="&lt;span style=&quot;color: rgb(0 , 0 , 0) ; font-family: &amp;#34;helvetica&amp;#34; ; font-size: 11px ; font-style: normal ; font-weight: 400 ; letter-spacing: normal ; text-align: left ; text-indent: 0px ; text-transform: none ; word-spacing: 0px ; background-color: rgb(255 , 255 , 255) ; display: inline ; float: none&quot;&gt;finishBeanFactoryInitialization&lt;/span&gt;" style="text;whiteSpace=wrap;html=1;" vertex="1" parent="WIyWlLk6GJQsqaUBKTNV-1">
          <mxGeometry x="-1240" y="-540" width="260" height="30" as="geometry" />
        </mxCell>
        <mxCell id="6wZ1TeUxjv15UuRKBNIG-81" value="1ãéåbeanDefinitionNamesã2ãæ ¹æ®beanNameè·åBeanDefinition&amp;nbsp; å³bdã&lt;br&gt;3ãå¦æbdéæ½è±¡&amp;amp;åä¾&amp;amp;éæå è½½ï¼&lt;br&gt;è¥éFactoryBeanï¼&lt;br&gt;getBean(beanName)" style="shape=note2;boundedLbl=1;whiteSpace=wrap;html=1;size=25;verticalAlign=top;align=center;fillColor=#FFFFFF;" vertex="1" parent="WIyWlLk6GJQsqaUBKTNV-1">
          <mxGeometry x="-910" y="-645" width="140" height="155" as="geometry" />
        </mxCell>
        <mxCell id="6wZ1TeUxjv15UuRKBNIG-83" value="&lt;p style=&quot;margin: 0px ; margin-top: 4px ; text-align: center&quot;&gt;&lt;b&gt;AbstractBeanFactory&lt;/b&gt;&lt;/p&gt;&lt;hr size=&quot;1&quot;&gt;&lt;div style=&quot;height: 2px&quot;&gt;&lt;/div&gt;" style="verticalAlign=top;align=left;overflow=fill;fontSize=12;fontFamily=Helvetica;html=1;fillColor=#FFE599;" vertex="1" parent="WIyWlLk6GJQsqaUBKTNV-1">
          <mxGeometry x="-827" y="-720" width="140" height="60" as="geometry" />
        </mxCell>
        <mxCell id="6wZ1TeUxjv15UuRKBNIG-84" value="" style="html=1;points=[];perimeter=orthogonalPerimeter;fillColor=#FFE599;" vertex="1" parent="WIyWlLk6GJQsqaUBKTNV-1">
          <mxGeometry x="-760" y="-430" width="10" height="1040" as="geometry" />
        </mxCell>
        <mxCell id="6wZ1TeUxjv15UuRKBNIG-85" value="getBean" style="html=1;verticalAlign=bottom;endArrow=block;entryX=0;entryY=0;" edge="1" target="6wZ1TeUxjv15UuRKBNIG-84" parent="WIyWlLk6GJQsqaUBKTNV-1">
          <mxGeometry relative="1" as="geometry">
            <mxPoint x="-990" y="-430" as="sourcePoint" />
          </mxGeometry>
        </mxCell>
        <mxCell id="6wZ1TeUxjv15UuRKBNIG-86" value="return Object" style="html=1;verticalAlign=bottom;endArrow=open;dashed=1;endSize=8;" edge="1" parent="WIyWlLk6GJQsqaUBKTNV-1">
          <mxGeometry relative="1" as="geometry">
            <mxPoint x="-988" y="250" as="targetPoint" />
            <mxPoint x="-763" y="250" as="sourcePoint" />
          </mxGeometry>
        </mxCell>
        <mxCell id="6wZ1TeUxjv15UuRKBNIG-88" value="" style="endArrow=none;startArrow=none;endFill=0;startFill=0;endSize=8;html=1;verticalAlign=bottom;dashed=1;labelBackgroundColor=none;dashPattern=10 10;entryX=0.3;entryY=0;entryDx=0;entryDy=0;entryPerimeter=0;" edge="1" parent="WIyWlLk6GJQsqaUBKTNV-1" target="6wZ1TeUxjv15UuRKBNIG-84">
          <mxGeometry width="160" relative="1" as="geometry">
            <mxPoint x="-757" y="-660" as="sourcePoint" />
            <mxPoint x="-610" y="-660" as="targetPoint" />
          </mxGeometry>
        </mxCell>
        <mxCell id="6wZ1TeUxjv15UuRKBNIG-92" value="" style="html=1;points=[];perimeter=orthogonalPerimeter;fillColor=#FFE599;" vertex="1" parent="WIyWlLk6GJQsqaUBKTNV-1">
          <mxGeometry x="-755" y="-390" width="10" height="950" as="geometry" />
        </mxCell>
        <mxCell id="6wZ1TeUxjv15UuRKBNIG-93" value="" style="edgeStyle=orthogonalEdgeStyle;html=1;align=left;spacingLeft=2;endArrow=block;rounded=0;entryX=1;entryY=0;" edge="1" target="6wZ1TeUxjv15UuRKBNIG-92" parent="WIyWlLk6GJQsqaUBKTNV-1">
          <mxGeometry relative="1" as="geometry">
            <mxPoint x="-750" y="-410" as="sourcePoint" />
            <Array as="points">
              <mxPoint x="-720" y="-410" />
            </Array>
          </mxGeometry>
        </mxCell>
        <mxCell id="6wZ1TeUxjv15UuRKBNIG-94" value="&lt;span style=&quot;color: rgb(0 , 0 , 0) ; font-family: &amp;#34;helvetica&amp;#34; ; font-size: 11px ; font-style: normal ; font-weight: 400 ; letter-spacing: normal ; text-align: left ; text-indent: 0px ; text-transform: none ; word-spacing: 0px ; background-color: rgb(255 , 255 , 255) ; display: inline ; float: none&quot;&gt;doGetBean&lt;/span&gt;" style="text;whiteSpace=wrap;html=1;" vertex="1" parent="WIyWlLk6GJQsqaUBKTNV-1">
          <mxGeometry x="-745" y="-440" width="120" height="20" as="geometry" />
        </mxCell>
        <mxCell id="6wZ1TeUxjv15UuRKBNIG-98" value="" style="html=1;points=[];perimeter=orthogonalPerimeter;fillColor=#FFE599;" vertex="1" parent="WIyWlLk6GJQsqaUBKTNV-1">
          <mxGeometry x="-745" y="-310" width="10" height="40" as="geometry" />
        </mxCell>
        <mxCell id="6wZ1TeUxjv15UuRKBNIG-99" value="" style="edgeStyle=orthogonalEdgeStyle;html=1;align=left;spacingLeft=2;endArrow=block;rounded=0;entryX=1;entryY=0;exitX=1;exitY=0.236;exitDx=0;exitDy=0;exitPerimeter=0;" edge="1" target="6wZ1TeUxjv15UuRKBNIG-98" parent="WIyWlLk6GJQsqaUBKTNV-1" source="6wZ1TeUxjv15UuRKBNIG-92">
          <mxGeometry relative="1" as="geometry">
            <mxPoint x="-740" y="-330" as="sourcePoint" />
            <Array as="points">
              <mxPoint x="-745" y="-330" />
              <mxPoint x="-710" y="-330" />
              <mxPoint x="-710" y="-310" />
            </Array>
          </mxGeometry>
        </mxCell>
        <mxCell id="6wZ1TeUxjv15UuRKBNIG-101" value="&lt;span style=&quot;color: rgb(0, 0, 0); font-family: helvetica; font-size: 11px; font-style: normal; font-weight: 400; letter-spacing: normal; text-align: center; text-indent: 0px; text-transform: none; word-spacing: 0px; background-color: rgb(255, 255, 255); display: inline; float: none;&quot;&gt;preInstantiateSingletons&lt;/span&gt;" style="text;whiteSpace=wrap;html=1;" vertex="1" parent="WIyWlLk6GJQsqaUBKTNV-1">
          <mxGeometry x="-1185" y="-485" width="150" height="30" as="geometry" />
        </mxCell>
        <mxCell id="6wZ1TeUxjv15UuRKBNIG-102" value="&lt;span style=&quot;color: rgb(0, 0, 0); font-family: helvetica; font-size: 11px; font-style: normal; font-weight: 400; letter-spacing: normal; text-align: left; text-indent: 0px; text-transform: none; word-spacing: 0px; background-color: rgb(255, 255, 255); display: inline; float: none;&quot;&gt;getSingleton&lt;/span&gt;" style="text;whiteSpace=wrap;html=1;" vertex="1" parent="WIyWlLk6GJQsqaUBKTNV-1">
          <mxGeometry x="-740" y="-360" width="90" height="30" as="geometry" />
        </mxCell>
        <mxCell id="6wZ1TeUxjv15UuRKBNIG-105" value="ä»singletonObjectsåä¾æ± ä¸­è·åbeanï¼è¿ånullï¼employeeå¹¶ä¸å¨åä¾æ± ä¸­ã" style="shape=note2;boundedLbl=1;whiteSpace=wrap;html=1;size=25;verticalAlign=top;align=center;fillColor=#FFFFFF;" vertex="1" parent="WIyWlLk6GJQsqaUBKTNV-1">
          <mxGeometry x="-520" y="-633.25" width="140" height="97.5" as="geometry" />
        </mxCell>
        <mxCell id="6wZ1TeUxjv15UuRKBNIG-110" value="" style="html=1;points=[];perimeter=orthogonalPerimeter;fillColor=#FFE599;" vertex="1" parent="WIyWlLk6GJQsqaUBKTNV-1">
          <mxGeometry x="-745" y="-220" width="10" height="40" as="geometry" />
        </mxCell>
        <mxCell id="6wZ1TeUxjv15UuRKBNIG-111" value="getParentBeanFactory" style="edgeStyle=orthogonalEdgeStyle;html=1;align=left;spacingLeft=2;endArrow=block;rounded=0;entryX=1;entryY=0;" edge="1" target="6wZ1TeUxjv15UuRKBNIG-110" parent="WIyWlLk6GJQsqaUBKTNV-1">
          <mxGeometry relative="1" as="geometry">
            <mxPoint x="-745" y="-240" as="sourcePoint" />
            <Array as="points">
              <mxPoint x="-715" y="-240" />
            </Array>
          </mxGeometry>
        </mxCell>
        <mxCell id="6wZ1TeUxjv15UuRKBNIG-112" value="åä¾æ± ä¸­æ²¡è¯¥bean,å¦æå­å¨ç¶å·¥åï¼ä¼å¾å¨ç¶å·¥åä¸­æ¾è¯¥bean" style="shape=note2;boundedLbl=1;whiteSpace=wrap;html=1;size=25;verticalAlign=top;align=center;fillColor=#FFFFFF;" vertex="1" parent="WIyWlLk6GJQsqaUBKTNV-1">
          <mxGeometry x="-520" y="-510" width="140" height="80" as="geometry" />
        </mxCell>
        <mxCell id="6wZ1TeUxjv15UuRKBNIG-113" value="" style="html=1;points=[];perimeter=orthogonalPerimeter;fillColor=#FFE599;" vertex="1" parent="WIyWlLk6GJQsqaUBKTNV-1">
          <mxGeometry x="-745" y="-140" width="10" height="40" as="geometry" />
        </mxCell>
        <mxCell id="6wZ1TeUxjv15UuRKBNIG-114" value="" style="edgeStyle=orthogonalEdgeStyle;html=1;align=left;spacingLeft=2;endArrow=block;rounded=0;entryX=1;entryY=0;exitX=0.971;exitY=0.604;exitDx=0;exitDy=0;exitPerimeter=0;" edge="1" target="6wZ1TeUxjv15UuRKBNIG-113" parent="WIyWlLk6GJQsqaUBKTNV-1" source="6wZ1TeUxjv15UuRKBNIG-92">
          <mxGeometry relative="1" as="geometry">
            <mxPoint x="-740" y="-160" as="sourcePoint" />
            <Array as="points">
              <mxPoint x="-710" y="-160" />
              <mxPoint x="-710" y="-140" />
            </Array>
          </mxGeometry>
        </mxCell>
        <mxCell id="6wZ1TeUxjv15UuRKBNIG-115" value="å°å½åæ­£å¨è¢«åå»ºçbeanåæ·»å å°alreadCreatedä¸­ï¼å¹¶å°å½åbeançåå¹¶æ æ³¨ä½è®¾ç½®ä¸ºtrue" style="shape=note2;boundedLbl=1;whiteSpace=wrap;html=1;size=25;verticalAlign=top;align=center;fillColor=#FFFFFF;" vertex="1" parent="WIyWlLk6GJQsqaUBKTNV-1">
          <mxGeometry x="-520" y="-400" width="140" height="90" as="geometry" />
        </mxCell>
        <mxCell id="6wZ1TeUxjv15UuRKBNIG-118" value="&lt;span style=&quot;color: rgb(0, 0, 0); font-family: helvetica; font-size: 11px; font-style: normal; font-weight: 400; letter-spacing: normal; text-align: left; text-indent: 0px; text-transform: none; word-spacing: 0px; background-color: rgb(255, 255, 255); display: inline; float: none;&quot;&gt;markBeanAsCreated&lt;/span&gt;" style="text;whiteSpace=wrap;html=1;" vertex="1" parent="WIyWlLk6GJQsqaUBKTNV-1">
          <mxGeometry x="-720" y="-190" width="140" height="30" as="geometry" />
        </mxCell>
        <mxCell id="6wZ1TeUxjv15UuRKBNIG-119" value="" style="html=1;points=[];perimeter=orthogonalPerimeter;fillColor=#FFE599;" vertex="1" parent="WIyWlLk6GJQsqaUBKTNV-1">
          <mxGeometry x="-745" y="-50" width="10" height="40" as="geometry" />
        </mxCell>
        <mxCell id="6wZ1TeUxjv15UuRKBNIG-120" value="getMergedLocalBeanDefinition" style="edgeStyle=orthogonalEdgeStyle;html=1;align=left;spacingLeft=2;endArrow=block;rounded=0;entryX=1;entryY=0;" edge="1" target="6wZ1TeUxjv15UuRKBNIG-119" parent="WIyWlLk6GJQsqaUBKTNV-1">
          <mxGeometry relative="1" as="geometry">
            <mxPoint x="-745" y="-70" as="sourcePoint" />
            <Array as="points">
              <mxPoint x="-715" y="-70" />
            </Array>
          </mxGeometry>
        </mxCell>
        <mxCell id="6wZ1TeUxjv15UuRKBNIG-121" value="è·ååå¹¶åçbeanå®ä¹ä¿¡æ¯" style="shape=note2;boundedLbl=1;whiteSpace=wrap;html=1;size=25;verticalAlign=top;align=center;fillColor=#FFFFFF;" vertex="1" parent="WIyWlLk6GJQsqaUBKTNV-1">
          <mxGeometry x="-520" y="-290" width="140" height="70" as="geometry" />
        </mxCell>
        <mxCell id="6wZ1TeUxjv15UuRKBNIG-122" value="" style="html=1;points=[];perimeter=orthogonalPerimeter;fillColor=#FFE599;" vertex="1" parent="WIyWlLk6GJQsqaUBKTNV-1">
          <mxGeometry x="-745" y="40" width="10" height="40" as="geometry" />
        </mxCell>
        <mxCell id="6wZ1TeUxjv15UuRKBNIG-123" value="åå§åå½åbeanä¾èµçbean" style="edgeStyle=orthogonalEdgeStyle;html=1;align=left;spacingLeft=2;endArrow=block;rounded=0;entryX=1;entryY=0;" edge="1" target="6wZ1TeUxjv15UuRKBNIG-122" parent="WIyWlLk6GJQsqaUBKTNV-1">
          <mxGeometry relative="1" as="geometry">
            <mxPoint x="-745" y="20" as="sourcePoint" />
            <Array as="points">
              <mxPoint x="-715" y="20" />
            </Array>
          </mxGeometry>
        </mxCell>
        <mxCell id="6wZ1TeUxjv15UuRKBNIG-134" style="edgeStyle=orthogonalEdgeStyle;rounded=0;orthogonalLoop=1;jettySize=auto;html=1;entryX=0.018;entryY=0.031;entryDx=0;entryDy=0;entryPerimeter=0;" edge="1" parent="WIyWlLk6GJQsqaUBKTNV-1" source="6wZ1TeUxjv15UuRKBNIG-124" target="6wZ1TeUxjv15UuRKBNIG-128">
          <mxGeometry relative="1" as="geometry">
            <mxPoint x="-390" y="172" as="targetPoint" />
            <Array as="points">
              <mxPoint x="-640" y="171" />
              <mxPoint x="-640" y="171" />
            </Array>
          </mxGeometry>
        </mxCell>
        <mxCell id="6wZ1TeUxjv15UuRKBNIG-124" value="" style="html=1;points=[];perimeter=orthogonalPerimeter;fillColor=#FFE599;" vertex="1" parent="WIyWlLk6GJQsqaUBKTNV-1">
          <mxGeometry x="-745" y="130" width="10" height="390" as="geometry" />
        </mxCell>
        <mxCell id="6wZ1TeUxjv15UuRKBNIG-125" value="getSingleton" style="edgeStyle=orthogonalEdgeStyle;html=1;align=left;spacingLeft=2;endArrow=block;rounded=0;entryX=1;entryY=0;" edge="1" target="6wZ1TeUxjv15UuRKBNIG-124" parent="WIyWlLk6GJQsqaUBKTNV-1">
          <mxGeometry relative="1" as="geometry">
            <mxPoint x="-745" y="110" as="sourcePoint" />
            <Array as="points">
              <mxPoint x="-715" y="110" />
            </Array>
          </mxGeometry>
        </mxCell>
        <mxCell id="6wZ1TeUxjv15UuRKBNIG-126" value="å¦æå½åbeanå®ä¹æ¯åä¾beanï¼åè·åè¯¥åä¾beanï¼" style="shape=note2;boundedLbl=1;whiteSpace=wrap;html=1;size=25;verticalAlign=top;align=center;fillColor=#FFFFFF;" vertex="1" parent="WIyWlLk6GJQsqaUBKTNV-1">
          <mxGeometry x="-510" y="-190" width="140" height="80" as="geometry" />
        </mxCell>
        <mxCell id="6wZ1TeUxjv15UuRKBNIG-127" value="&lt;p style=&quot;margin: 0px ; margin-top: 4px ; text-align: center&quot;&gt;&lt;b&gt;AbstractAutowireCapableObjectFactory&lt;/b&gt;&lt;/p&gt;&lt;hr size=&quot;1&quot;&gt;&lt;div style=&quot;height: 2px&quot;&gt;&lt;/div&gt;" style="verticalAlign=top;align=left;overflow=fill;fontSize=12;fontFamily=Helvetica;html=1;fillColor=#FFE599;" vertex="1" parent="WIyWlLk6GJQsqaUBKTNV-1">
          <mxGeometry x="-490" y="-720" width="250" height="60" as="geometry" />
        </mxCell>
        <mxCell id="6wZ1TeUxjv15UuRKBNIG-154" style="edgeStyle=orthogonalEdgeStyle;rounded=0;orthogonalLoop=1;jettySize=auto;html=1;entryX=-0.1;entryY=0.25;entryDx=0;entryDy=0;entryPerimeter=0;" edge="1" parent="WIyWlLk6GJQsqaUBKTNV-1" source="6wZ1TeUxjv15UuRKBNIG-128" target="6wZ1TeUxjv15UuRKBNIG-152">
          <mxGeometry relative="1" as="geometry">
            <Array as="points">
              <mxPoint x="-215" y="318" />
            </Array>
          </mxGeometry>
        </mxCell>
        <mxCell id="6wZ1TeUxjv15UuRKBNIG-128" value="" style="html=1;points=[];perimeter=orthogonalPerimeter;fillColor=#FFE599;" vertex="1" parent="WIyWlLk6GJQsqaUBKTNV-1">
          <mxGeometry x="-360" y="160" width="10" height="340" as="geometry" />
        </mxCell>
        <mxCell id="6wZ1TeUxjv15UuRKBNIG-129" value="" style="endArrow=none;startArrow=none;endFill=0;startFill=0;endSize=8;html=1;verticalAlign=bottom;dashed=1;labelBackgroundColor=none;dashPattern=10 10;entryX=0.5;entryY=0;entryDx=0;entryDy=0;entryPerimeter=0;exitX=0.528;exitY=1.083;exitDx=0;exitDy=0;exitPerimeter=0;" edge="1" parent="WIyWlLk6GJQsqaUBKTNV-1" source="6wZ1TeUxjv15UuRKBNIG-127" target="6wZ1TeUxjv15UuRKBNIG-128">
          <mxGeometry width="160" relative="1" as="geometry">
            <mxPoint x="-350" y="30" as="sourcePoint" />
            <mxPoint x="-190" y="30" as="targetPoint" />
          </mxGeometry>
        </mxCell>
        <mxCell id="6wZ1TeUxjv15UuRKBNIG-133" value="return Object" style="html=1;verticalAlign=bottom;labelBackgroundColor=none;endArrow=open;endFill=0;dashed=1;" edge="1" parent="WIyWlLk6GJQsqaUBKTNV-1">
          <mxGeometry width="160" relative="1" as="geometry">
            <mxPoint x="-600" y="510" as="sourcePoint" />
            <mxPoint x="-710" y="510" as="targetPoint" />
          </mxGeometry>
        </mxCell>
        <mxCell id="6wZ1TeUxjv15UuRKBNIG-135" value="&lt;span style=&quot;color: rgb(0, 0, 0); font-family: helvetica; font-size: 12px; font-style: normal; font-weight: 400; letter-spacing: normal; text-align: center; text-indent: 0px; text-transform: none; word-spacing: 0px; background-color: rgb(248, 249, 250); display: inline; float: none;&quot;&gt;createBean&lt;/span&gt;" style="text;whiteSpace=wrap;html=1;" vertex="1" parent="WIyWlLk6GJQsqaUBKTNV-1">
          <mxGeometry x="-650" y="150" width="90" height="20" as="geometry" />
        </mxCell>
        <mxCell id="6wZ1TeUxjv15UuRKBNIG-137" value="" style="html=1;points=[];perimeter=orthogonalPerimeter;fillColor=#FFE599;" vertex="1" parent="WIyWlLk6GJQsqaUBKTNV-1">
          <mxGeometry x="-735" y="220" width="10" height="60" as="geometry" />
        </mxCell>
        <mxCell id="6wZ1TeUxjv15UuRKBNIG-138" value="resolveBeanClass" style="html=1;verticalAlign=bottom;endArrow=block;entryX=1;entryY=0;exitX=0;exitY=0.176;exitDx=0;exitDy=0;exitPerimeter=0;" edge="1" target="6wZ1TeUxjv15UuRKBNIG-137" parent="WIyWlLk6GJQsqaUBKTNV-1" source="6wZ1TeUxjv15UuRKBNIG-128">
          <mxGeometry relative="1" as="geometry">
            <mxPoint x="-665" y="220" as="sourcePoint" />
          </mxGeometry>
        </mxCell>
        <mxCell id="6wZ1TeUxjv15UuRKBNIG-139" value="Class&amp;lt;?&amp;gt;" style="html=1;verticalAlign=bottom;endArrow=open;dashed=1;endSize=8;exitX=1;exitY=0.95;entryX=-0.4;entryY=0.335;entryDx=0;entryDy=0;entryPerimeter=0;" edge="1" source="6wZ1TeUxjv15UuRKBNIG-137" parent="WIyWlLk6GJQsqaUBKTNV-1" target="6wZ1TeUxjv15UuRKBNIG-128">
          <mxGeometry relative="1" as="geometry">
            <mxPoint x="-665" y="277" as="targetPoint" />
          </mxGeometry>
        </mxCell>
        <mxCell id="6wZ1TeUxjv15UuRKBNIG-140" value="" style="endArrow=none;startArrow=none;endFill=0;startFill=0;endSize=8;html=1;verticalAlign=bottom;dashed=1;labelBackgroundColor=none;dashPattern=10 10;" edge="1" parent="WIyWlLk6GJQsqaUBKTNV-1" source="6wZ1TeUxjv15UuRKBNIG-81">
          <mxGeometry width="160" relative="1" as="geometry">
            <mxPoint x="-890" y="-480" as="sourcePoint" />
            <mxPoint x="-870" y="-450" as="targetPoint" />
          </mxGeometry>
        </mxCell>
        <mxCell id="6wZ1TeUxjv15UuRKBNIG-141" value="" style="endArrow=none;startArrow=none;endFill=0;startFill=0;endSize=8;html=1;verticalAlign=bottom;dashed=1;labelBackgroundColor=none;dashPattern=10 10;exitX=0;exitY=1;exitDx=0;exitDy=0;exitPerimeter=0;" edge="1" parent="WIyWlLk6GJQsqaUBKTNV-1" source="6wZ1TeUxjv15UuRKBNIG-105" target="6wZ1TeUxjv15UuRKBNIG-102">
          <mxGeometry width="160" relative="1" as="geometry">
            <mxPoint x="-350" y="-500" as="sourcePoint" />
            <mxPoint x="-190" y="-500" as="targetPoint" />
          </mxGeometry>
        </mxCell>
        <mxCell id="6wZ1TeUxjv15UuRKBNIG-142" value="" style="endArrow=none;startArrow=none;endFill=0;startFill=0;endSize=8;html=1;verticalAlign=bottom;dashed=1;labelBackgroundColor=none;dashPattern=10 10;exitX=0.064;exitY=1.025;exitDx=0;exitDy=0;exitPerimeter=0;" edge="1" parent="WIyWlLk6GJQsqaUBKTNV-1" source="6wZ1TeUxjv15UuRKBNIG-112">
          <mxGeometry width="160" relative="1" as="geometry">
            <mxPoint x="-350" y="-400" as="sourcePoint" />
            <mxPoint x="-660" y="-240" as="targetPoint" />
          </mxGeometry>
        </mxCell>
        <mxCell id="6wZ1TeUxjv15UuRKBNIG-143" value="" style="endArrow=none;startArrow=none;endFill=0;startFill=0;endSize=8;html=1;verticalAlign=bottom;dashed=1;labelBackgroundColor=none;dashPattern=10 10;entryX=0;entryY=1;entryDx=0;entryDy=0;entryPerimeter=0;" edge="1" parent="WIyWlLk6GJQsqaUBKTNV-1" source="6wZ1TeUxjv15UuRKBNIG-118" target="6wZ1TeUxjv15UuRKBNIG-115">
          <mxGeometry width="160" relative="1" as="geometry">
            <mxPoint x="-550" y="-180" as="sourcePoint" />
            <mxPoint x="-390" y="-180" as="targetPoint" />
          </mxGeometry>
        </mxCell>
        <mxCell id="6wZ1TeUxjv15UuRKBNIG-144" value="" style="endArrow=none;startArrow=none;endFill=0;startFill=0;endSize=8;html=1;verticalAlign=bottom;dashed=1;labelBackgroundColor=none;dashPattern=10 10;entryX=0;entryY=1;entryDx=0;entryDy=0;entryPerimeter=0;" edge="1" parent="WIyWlLk6GJQsqaUBKTNV-1" target="6wZ1TeUxjv15UuRKBNIG-121">
          <mxGeometry width="160" relative="1" as="geometry">
            <mxPoint x="-630" y="-70" as="sourcePoint" />
            <mxPoint x="-510" y="-90" as="targetPoint" />
          </mxGeometry>
        </mxCell>
        <mxCell id="6wZ1TeUxjv15UuRKBNIG-145" value="" style="endArrow=none;startArrow=none;endFill=0;startFill=0;endSize=8;html=1;verticalAlign=bottom;dashed=1;labelBackgroundColor=none;dashPattern=10 10;entryX=0;entryY=0.5;entryDx=0;entryDy=0;entryPerimeter=0;" edge="1" parent="WIyWlLk6GJQsqaUBKTNV-1" target="6wZ1TeUxjv15UuRKBNIG-126">
          <mxGeometry width="160" relative="1" as="geometry">
            <mxPoint x="-640" y="110" as="sourcePoint" />
            <mxPoint x="-510" y="80" as="targetPoint" />
          </mxGeometry>
        </mxCell>
        <mxCell id="6wZ1TeUxjv15UuRKBNIG-146" value="è§£æbeanå®ä¹classç±»ï¼å°beanç±»åè§£æä¸ºClasså¼ç¨ï¼å¦æéè¦ï¼ï¼å¹¶å°è§£æåçClasså­å¨å¨beanå®ä¹ä¸­ä»¥å¤å°æ¥ä½¿ç¨ãå¨è¿éä½¿ç¨åå°åå»ºäºbeanNameç&lt;br&gt;Classç±»ï¼&lt;b&gt;æ³¨æClass.forNameä¼ å¥çinitializeä¸ºfalseï¼è¡¨ç¤ºåªæ¯å è½½è¿ä¸ªç±»å°jvmï¼å¹¶ä¸åå§åå®&lt;/b&gt;" style="shape=note2;boundedLbl=1;whiteSpace=wrap;html=1;size=25;verticalAlign=top;align=center;fillColor=#FFFFFF;" vertex="1" parent="WIyWlLk6GJQsqaUBKTNV-1">
          <mxGeometry x="-510" y="-80" width="140" height="210" as="geometry" />
        </mxCell>
        <mxCell id="6wZ1TeUxjv15UuRKBNIG-147" value="" style="endArrow=none;startArrow=none;endFill=0;startFill=0;endSize=8;html=1;verticalAlign=bottom;dashed=1;labelBackgroundColor=none;dashPattern=10 10;" edge="1" parent="WIyWlLk6GJQsqaUBKTNV-1" target="6wZ1TeUxjv15UuRKBNIG-146">
          <mxGeometry width="160" relative="1" as="geometry">
            <mxPoint x="-500" y="200" as="sourcePoint" />
            <mxPoint x="-400" y="190" as="targetPoint" />
          </mxGeometry>
        </mxCell>
        <mxCell id="6wZ1TeUxjv15UuRKBNIG-151" value="&lt;p style=&quot;margin: 0px ; margin-top: 4px ; text-align: center&quot;&gt;&lt;b&gt;AbstractBeanDefiniion&lt;/b&gt;&lt;/p&gt;&lt;hr size=&quot;1&quot;&gt;&lt;div style=&quot;height: 2px&quot;&gt;&lt;/div&gt;" style="verticalAlign=top;align=left;overflow=fill;fontSize=12;fontFamily=Helvetica;html=1;fillColor=#FFE599;" vertex="1" parent="WIyWlLk6GJQsqaUBKTNV-1">
          <mxGeometry x="-160" y="-720" width="140" height="60" as="geometry" />
        </mxCell>
        <mxCell id="6wZ1TeUxjv15UuRKBNIG-152" value="" style="html=1;points=[];perimeter=orthogonalPerimeter;fillColor=#FFE599;" vertex="1" parent="WIyWlLk6GJQsqaUBKTNV-1">
          <mxGeometry x="-80" y="310" width="10" height="30" as="geometry" />
        </mxCell>
        <mxCell id="6wZ1TeUxjv15UuRKBNIG-155" value="prepareMethodOverrides" style="text;html=1;align=center;verticalAlign=middle;resizable=0;points=[];autosize=1;" vertex="1" parent="WIyWlLk6GJQsqaUBKTNV-1">
          <mxGeometry x="-310" y="290" width="150" height="20" as="geometry" />
        </mxCell>
        <mxCell id="6wZ1TeUxjv15UuRKBNIG-156" value="" style="endArrow=none;startArrow=none;endFill=0;startFill=0;endSize=8;html=1;verticalAlign=bottom;dashed=1;labelBackgroundColor=none;dashPattern=10 10;entryX=0.2;entryY=-0.062;entryDx=0;entryDy=0;entryPerimeter=0;exitX=0.571;exitY=1.033;exitDx=0;exitDy=0;exitPerimeter=0;" edge="1" parent="WIyWlLk6GJQsqaUBKTNV-1" source="6wZ1TeUxjv15UuRKBNIG-151" target="6wZ1TeUxjv15UuRKBNIG-152">
          <mxGeometry width="160" relative="1" as="geometry">
            <mxPoint x="-100" y="-670" as="sourcePoint" />
            <mxPoint x="60" y="-670" as="targetPoint" />
          </mxGeometry>
        </mxCell>
        <mxCell id="6wZ1TeUxjv15UuRKBNIG-157" value="ä½ å¯æ¯ä½¿ç¨æäºæ¹æ³æ¿æ¢beanä¸­åæçæ¹æ³ãç®çå°±æ¯ä¸ºäºè§£å³ï¼åä¾ç±»Aä¸­ä½¿ç¨å¤ä¾ç±»Bæ¶ï¼æ¯æ¬¡è·åçç±»Bä¹é½æ¯åä¾çé®é¢ã&lt;br&gt;è§£å³æ¹æ¡ï¼&lt;br&gt;1ãåä¾Aå®ç°ApplicationContextAwareæ¯æ¬¡è·åæ°çç±»Bä½¿ç¨ï¼è¦åäºspringï¼ã&lt;br&gt;2ãä½¿ç¨æ¹æ³æ³¨å¥ï¼ä¸¤ç§æ¹å¼ï¼Lookupåmethod-replaceï¼ã&lt;br&gt;&lt;br&gt;æ¬æ¹æ³å°±æ¯å¤çæ¹æ³æ³¨å¥çç¬¬äºç§æ¹å¼method-replaceç" style="shape=note2;boundedLbl=1;whiteSpace=wrap;html=1;size=25;verticalAlign=top;align=center;fillColor=#FFFFFF;" vertex="1" parent="WIyWlLk6GJQsqaUBKTNV-1">
          <mxGeometry x="-240" y="-100" width="140" height="300" as="geometry" />
        </mxCell>
        <mxCell id="6wZ1TeUxjv15UuRKBNIG-158" value="" style="endArrow=none;startArrow=none;endFill=0;startFill=0;endSize=8;html=1;verticalAlign=bottom;dashed=1;labelBackgroundColor=none;dashPattern=10 10;exitX=0.5;exitY=1;exitDx=0;exitDy=0;exitPerimeter=0;entryX=0.353;entryY=0.1;entryDx=0;entryDy=0;entryPerimeter=0;" edge="1" parent="WIyWlLk6GJQsqaUBKTNV-1" source="6wZ1TeUxjv15UuRKBNIG-157" target="6wZ1TeUxjv15UuRKBNIG-155">
          <mxGeometry width="160" relative="1" as="geometry">
            <mxPoint x="-280" y="120" as="sourcePoint" />
            <mxPoint x="-120" y="120" as="targetPoint" />
          </mxGeometry>
        </mxCell>
        <mxCell id="6wZ1TeUxjv15UuRKBNIG-159" value="" style="html=1;points=[];perimeter=orthogonalPerimeter;fillColor=#FFE599;" vertex="1" parent="WIyWlLk6GJQsqaUBKTNV-1">
          <mxGeometry x="-350" y="380" width="10" height="40" as="geometry" />
        </mxCell>
        <mxCell id="6wZ1TeUxjv15UuRKBNIG-160" value="resolveBeforeInstantiation" style="edgeStyle=orthogonalEdgeStyle;html=1;align=left;spacingLeft=2;endArrow=block;rounded=0;entryX=1;entryY=0;" edge="1" target="6wZ1TeUxjv15UuRKBNIG-159" parent="WIyWlLk6GJQsqaUBKTNV-1">
          <mxGeometry relative="1" as="geometry">
            <mxPoint x="-345" y="360" as="sourcePoint" />
            <Array as="points">
              <mxPoint x="-315" y="360" />
            </Array>
          </mxGeometry>
        </mxCell>
      </root>
    </mxGraphModel>
  </diagram>
</mxfile>
